<?xml version="1.0" encoding="UTF-8" standalone="no"?>
<svg width="115px" height="120px" viewBox="0 0 115 120" version="1.1" xmlns="http://www.w3.org/2000/svg" xmlns:xlink="http://www.w3.org/1999/xlink">
    <!-- Generator: Sketch 3.7.2 (28276) - http://www.bohemiancoding.com/sketch -->
    <title>Badge</title>
    <desc>Created with Sketch.</desc>
    <defs></defs>
    <g id="Page-1" stroke="none" stroke-width="1" fill="none" fill-rule="evenodd">
        <g id="Mode_homepage" transform="translate(-311.000000, -548.000000)">
            <g id="H2h" transform="translate(209.000000, 475.000000)">
                <g id="Badge" transform="translate(102.000000, 73.000000)">
                    <path d="M57.4803669,0.0061873244 L57.4803669,0 L57.4661931,0 L57.4661931,0.0061873244 L0.0168314732,28.3671145 C0.0168314732,96.9235528 56.5147719,119.530268 57.4661931,119.908579 L57.4661931,119.914766 L57.47328,119.911231 L57.4803669,119.914766 L57.4803669,119.908579 C58.4335598,119.530268 114.929729,96.9235528 114.929729,28.3671145 L57.4803669,0.0061873244" id="Fill-1" fill="#00CD79"></path>
                    <path d="M57.459992,79.0483726 L114.913783,29.6673366 C114.918212,29.23334 114.929729,28.8055307 114.929729,28.3671145 L113.220005,27.5238706 L57.459992,75.4491176 L57.459992,79.0483726" id="Fill-2" fill="#00AF67"></path>
                    <path d="M57.459992,86.2451147 L114.607273,37.1283659 C114.697631,35.8855976 114.765843,34.6233834 114.818995,33.3470268 L57.459992,82.6458598 L57.459992,86.2451147" id="Fill-3" fill="#00AF67"></path>
                    <polyline id="Fill-4" fill="#00AF67" points="57.459992 72.4190964 110.981419 26.4181074 108.322046 25.1055107 57.459992 68.8207253 57.459992 72.4190964"></polyline>
                    <polyline id="Fill-5" fill="#00AF67" points="57.459992 65.600665 105.942608 23.9299191 103.283235 22.6182063 57.459992 62.00141 57.459992 65.600665"></polyline>
                    <path d="M57.459992,106.889565 L109.822705,61.8847347 C110.337394,60.3087348 110.820191,58.6973787 111.266668,57.0453631 L57.459992,103.291193 L57.459992,106.889565" id="Fill-6" fill="#00AF67"></path>
                    <polyline id="Fill-7" fill="#00AF67" points="57.459992 58.4039228 100.623862 21.3038418 97.9644894 19.992129 57.459992 54.8046678 57.459992 58.4039228"></polyline>
                    <path d="M57.459992,114.868561 L104.870709,74.1188428 C105.787581,72.2414318 106.656617,70.2950764 107.476929,68.2815442 L57.459992,111.271074 L57.459992,114.868561" id="Fill-8" fill="#00AF67"></path>
                    <path d="M57.459992,93.4418569 L113.734694,45.0746582 C113.928699,43.7452674 114.105872,42.4008502 114.254698,41.029032 L57.459992,89.8426019 L57.459992,93.4418569" id="Fill-9" fill="#00AF67"></path>
                    <path d="M57.459992,100.260288 L112.218975,53.1959634 C112.54586,51.7640398 112.849713,50.3073669 113.12256,48.8206412 L57.459992,96.6619173 L57.459992,100.260288" id="Fill-10" fill="#00AF67"></path>
                    <polyline id="Fill-11" fill="#00AF67" points="57.459992 9.53908641 64.5123793 3.47727631 61.8530065 2.16467963 57.459992 5.94071532 57.459992 9.53908641"></polyline>
                    <polyline id="Fill-12" fill="#00AF67" points="57.459992 16.3575179 69.550305 5.96546462 66.8927039 4.65286795 57.459992 12.7591468 57.459992 16.3575179"></polyline>
                    <path d="M57.4661931,119.908579 L57.4661931,119.914766 L57.47328,119.911231 L57.4803669,119.914766 L57.4803669,119.908579 C57.6584262,119.837867 59.7809636,118.989319 63.1127094,117.208254 L95.5850506,89.2972335 C97.5507895,86.6755757 99.4483166,83.8568075 101.23954,80.8400449 L57.459992,118.467816 L57.459992,119.905927 L57.4661931,119.908579" id="Fill-13" fill="#00AF67"></path>
                    <polyline id="Fill-14" fill="#00AF67" points="57.459992 22.9859101 74.4500354 8.38382456 71.7906627 7.07034398 57.459992 19.387539 57.459992 22.9859101"></polyline>
                    <polyline id="Fill-15" fill="#00AF67" points="57.459992 2.34146033 59.1936337 0.85208296 57.4794811 0.0061873244 57.4794811 0 57.4661931 0 57.4661931 0.0061873244 57.459992 0.00972293834 57.459992 2.34146033"></polyline>
                    <polyline id="Fill-16" fill="#00AF67" points="57.459992 37.9486283 85.5074275 13.8428125 82.8480547 12.5293319 57.459992 34.3502572 57.459992 37.9486283"></polyline>
                    <polyline id="Fill-17" fill="#00AF67" points="57.459992 44.7661759 90.546239 16.3301169 87.8868663 15.0166363 57.459992 41.1686887 57.459992 44.7661759"></polyline>
                    <polyline id="Fill-18" fill="#00AF67" points="57.459992 30.7518861 80.1886819 11.2167352 77.5293092 9.90325465 57.459992 27.1535151 57.459992 30.7518861"></polyline>
                    <polyline id="Fill-19" fill="#00AF67" points="57.459992 51.3972198 95.4450836 18.7484768 92.7857108 17.4358801 57.459992 47.797081 57.459992 51.3972198"></polyline>
                    <path d="M57.4803669,0.0061873244 L57.4803669,0 L57.4661931,0 L57.4661931,0.0061873244 L0.0168314732,28.3671145 C0.0168314732,96.9235528 56.5147719,119.530268 57.4661931,119.908579 L57.4661931,119.914766 L57.47328,119.911231 L57.4803669,119.914766 L57.4803669,119.908579 C58.4335598,119.530268 114.929729,96.9235528 114.929729,28.3671145 L57.4803669,0.0061873244 M57.4803669,114.997611 L57.4803669,115.001147 L57.4644213,115.001147 L57.4644213,114.997611 C56.5927282,114.650237 4.72432878,93.889996 4.72432878,30.9569518 L57.4644213,4.91715509 L57.4644213,4.91096776 L57.47328,4.91361947 L57.4803669,4.91096776 L57.4803669,4.91715509 L110.222231,30.9569518 C110.222231,93.889996 58.3538318,114.650237 57.4803669,114.997611" id="Fill-20" fill="#34587A"></path>
                    <path d="M57.4803669,0 L57.4661931,0 L57.4661931,0.0061873244 L57.4139269,0.030936622 L57.4139269,4.94190439 L57.4644213,4.91715509 L57.4644213,4.91096776 L57.47328,4.91361947 L57.4803669,4.91096776 L57.4803669,4.91715509 L110.222231,30.9569518 C110.222231,93.889996 58.3538318,114.650237 57.4803669,114.997611 L57.4803669,115.001147 L57.4644213,115.001147 L57.4644213,114.997611 L57.4139269,114.977281 L57.4139269,119.888249 L57.4661931,119.908579 L57.4661931,119.914766 L57.47328,119.911231 L57.4803669,119.914766 L57.4803669,119.908579 C58.4335598,119.530268 114.929729,96.9235528 114.929729,28.3671145 L57.4803669,0.0061873244 L57.4803669,0" id="Fill-21" fill="#007BAB"></path>
                    <path d="M66.7438783,64.9624866 L66.2291896,57.1540832 L63.8594953,52.4260835 C63.7602782,52.6983258 63.6566318,52.9696841 63.52198,53.2322035 C63.0710737,54.1081518 62.3101139,54.8859869 61.7024091,55.7071332 C62.6910367,59.702377 59.6020184,63.6711036 59.95105,65.9931181 C58.4016686,68.2771247 55.2276071,72.4756663 55.2276071,72.4756663 L77.0792887,105.326823 L93.4678284,86.618122 L66.7438783,64.9624866" id="Fill-22" fill="#007BAB"></path>
                    <path d="M73.9805259,100.668652 L73.9805259,100.668652 L75.5042172,102.95973 L73.9805259,100.668652 M70.6036009,95.5923941 L70.6036009,95.5923941 L72.4577205,98.3802257 L72.4586064,98.3802257 L70.6036009,95.5923941 M67.79806,91.3744067 L67.79806,91.3744067 L69.0807955,93.3030841 L67.79806,91.3744067 M64.9127912,87.0362084 L64.9127912,87.0362084 L66.2752546,89.0850966 L64.9127912,87.0362084" id="Fill-23" fill="#00A871"></path>
                    <polyline id="Fill-24" fill="#008F61" points="69.0807955 93.3030841 69.0807955 93.3030841 70.6036009 95.5923941 69.0807955 93.3030841"></polyline>
                    <polyline id="Fill-25" fill="#008F61" points="72.4586064 98.3802257 72.4577205 98.3802257 73.9805259 100.668652 72.4586064 98.3802257"></polyline>
                    <polyline id="Fill-26" fill="#008F61" points="66.2752546 89.0850966 66.2752546 89.0850966 67.79806 91.3744067 66.2752546 89.0850966"></polyline>
                    <polyline id="Fill-27" fill="#008F61" points="75.5042172 102.95973 75.5042172 102.95973 76.0724163 103.698673 75.5042172 102.95973"></polyline>
                    <path d="M67.8556414,67.4586301 C65.4230506,69.3846558 59.3353725,72.3651783 58.226267,72.9644649 L56.8956947,74.9841843 L75.9958734,103.698673 C77.9403515,102.778529 80.594409,101.054918 80.594409,101.054918 L62.3234019,76.5265959 L63.7629358,73.8748855 L72.4001392,81.498553 C72.4001392,81.498553 66.4205368,74.8692769 65.5346698,73.6539096 C66.6499764,71.9850998 67.478262,69.0019256 67.8556414,67.4586301" id="Fill-28" fill="#0064A0"></path>
                    <path d="M70.6337203,64.1837677 L69.7195056,62.3682299 L69.9356571,60.8956467 L69.3625012,58.7203602 L67.6324029,57.8117074 L67.2762844,55.9342964 L65.9917772,55.0839813 L66.5401289,53.7872949 L65.5444144,50.7166142 L62.8035418,49.5799143 L61.0397806,50.8164953 L59.6330238,52.3412288 L55.3773187,48.0940725 L46.0021881,55.828228 L47.0359949,64.9624866 L20.3120447,86.618122 L36.7005844,105.326823 L58.226267,72.9644649 C59.5240621,72.2635294 67.6412616,68.3001062 68.7388508,66.5826817 C68.8903341,66.3457956 70.6337203,64.1837677 70.6337203,64.1837677" id="Fill-29" fill="#34587A"></path>
                    <path d="M31.8699516,103.033094 C32.2101246,103.521008 32.6574874,103.924068 33.1810348,104.20515 C32.7443024,103.821536 32.3093417,103.432618 31.8699516,103.033094" id="Fill-30" fill="#82D0EF"></path>
                    <path d="M56.8894936,74.9744614 L38.1746672,103.109993 C47.188364,110.388055 55.0105697,113.957257 56.9922542,114.802269 C55.0203143,113.960792 47.2583475,110.415456 38.2960309,103.203687 L56.8956947,74.9841843 L56.8894936,74.9744614" id="Fill-31" fill="#00A871"></path>
                    <path d="M31.0407801,98.8663726 C30.4472492,99.5602368 29.8988975,100.224048 29.4772248,100.780024 C30.2736193,101.552555 31.0673561,102.295034 31.8593212,103.017183 C31.8628647,103.022487 31.8664082,103.02779 31.8699516,103.033094 C32.3093417,103.432618 32.7443024,103.821536 33.1810348,104.20515 C33.1872359,104.208685 33.1934369,104.212221 33.199638,104.214873 C45.3856246,114.922479 56.4766796,119.509939 57.4139269,119.888249 L57.4139269,114.978165 C57.3395141,114.948113 57.1968895,114.889775 56.9922542,114.802269 C55.0105697,113.957257 47.188364,110.388055 38.1746672,103.109993 L36.7005844,105.326823 L31.0407801,98.8663726" id="Fill-32" fill="#1B4872"></path>
                    <path d="M58.9872267,114.342639 C58.092501,114.75277 57.5618667,114.964907 57.4803669,114.997611 C57.5618667,114.965791 58.092501,114.753654 58.9872267,114.343523 L58.9872267,114.342639" id="Fill-33" fill="#00A871"></path>
                    <path id="Fill-34" fill="#1B4872"></path>
                    <path d="M58.9872267,114.343523 C58.092501,114.753654 57.5618667,114.965791 57.4803669,114.997611 L57.4803669,115.001147 L57.4644213,115.001147 L57.4644213,114.997611 C57.4546768,114.994076 57.4378453,114.987004 57.4139269,114.978165 L57.4139269,119.888249 C57.4192421,119.890017 57.4236715,119.891785 57.4281008,119.893553 L57.4661931,119.908579 L57.4661931,119.914766 L57.47328,119.911231 L57.4803669,119.914766 L57.4803669,119.908579 C57.5211168,119.892669 57.6717142,119.831679 57.9091266,119.731798 C58.21918,118.195574 59.0014006,114.999379 59.0014006,114.644934 C59.0014006,114.5919 58.9960854,114.485831 58.9872267,114.343523" id="Fill-35" fill="#0064A0"></path>
                    <polyline id="Fill-36" fill="#0064A0" points="56.8894936 74.9744614 56.8894936 74.9744614 56.9036013 74.9965417 56.8894936 74.9744614"></polyline>
                    <polyline id="Fill-37" fill="#005296" points="58.226267 72.9644649 56.8894936 74.9744614 56.8956947 74.9841843 58.226267 72.9644649"></polyline>
                    <path d="M60.4480214,51.835636 C60.3186849,51.9894352 60.1999787,52.1538412 60.1051909,52.3376932 C60.051153,52.4428777 60.0263487,52.5551334 60.0121749,52.6673892 L59.8801807,52.51359 C59.8801807,55.4605242 54.5649786,58.4074584 54.5649786,58.4074584 L53.0891242,56.9331074 L53.6117857,55.9431355 C53.3637429,55.7318825 53.0306569,55.4198646 52.6949133,55.095472 L52.903978,61.6734818 L52.2475505,63.8319741 L50.4076047,64.3967884 L48.986674,66.2220491 L46.8783105,65.7049656 L45.3360161,67.0237496 C45.5211623,67.1103721 45.7913517,67.1527995 46.1208942,67.1527995 C47.794297,67.1527995 51.0206247,66.0655982 52.6895981,64.1519471 C53.7322636,62.9577935 53.3539984,59.8800416 53.3539984,59.8800416 L59.1856609,55.9024759 C59.1856609,55.9024759 59.9864847,53.1287868 60.4480214,51.835636 M62.8035418,49.5799143 L61.5438389,50.4629339 C61.4587957,50.6600443 61.3427471,50.8350572 61.2098671,50.9985794 C62.023093,50.690981 62.6104228,50.5690023 63.0684161,50.5690023 C63.9525113,50.5690023 64.3493798,51.0259804 64.9437965,51.4829585 C65.9031905,52.2192501 65.0917363,55.3129123 65.0917363,55.6072521 C65.0917363,55.9024759 65.1652633,57.7436469 65.8296635,58.1122346 C66.4940638,58.4808224 67.5278706,59.363842 67.5278706,59.363842 C67.5278706,59.363842 67.7493373,61.2058968 67.9708041,61.2792608 C68.1922709,61.3526248 69.5210714,63.7099954 69.5210714,63.7099954 C69.5210714,63.7099954 68.7087313,64.446287 67.3799308,65.7721422 C64.5655313,68.5811875 60.6384828,69.8274914 58.6488255,69.8274914 C58.079213,69.8274914 57.6690566,69.7258425 57.4883397,69.528732 C61.3640079,68.3080613 61.610279,67.7105426 63.009063,66.7603463 C60.9485363,67.8970462 53.3539984,70.0449317 53.3539984,70.0449317 L32.1348259,97.7871265 L32.0488968,97.7049234 C31.707838,98.0920732 31.3667792,98.4836424 31.0407801,98.8663726 L36.7005844,105.326823 L58.226267,72.9644649 C59.5240621,72.2635294 67.6412616,68.3001062 68.7388508,66.5826817 C68.8903341,66.3457956 70.6337203,64.1837677 70.6337203,64.1837677 L70.6142313,64.143992 L69.7195056,62.3682299 L69.9356571,60.8956467 L69.3625012,58.7203602 L69.2694851,58.6708616 L67.6324029,57.8117074 L67.2762844,55.9342964 L65.9917772,55.0839813 L66.5401289,53.7872949 L65.5444144,50.7166142 L62.8035418,49.5799143" id="Fill-38" fill="#1B4872"></path>
                    <path d="M63.5772621,66.5093177 C63.3704062,66.7059604 63.1844977,66.8945768 63.009063,67.07918 C63.2512677,66.8745112 63.4489591,66.6818817 63.5772621,66.5093177" id="Fill-39" fill="#1D0706"></path>
                    <polyline id="Fill-40" fill="#007BAB" points="50.85231 50.4470236 48.993761 49.3571706 46.3538773 50.7113107 45.6106348 53.8535876 46.262633 55.1007755 45.0507669 56.0518556 44.8487892 57.9522481 43.198419 58.997022 42.8024364 61.2112002 43.13818 62.6625698 42.3745627 64.5452842 45.3360161 67.0237496 46.8783105 65.7049656 48.986674 66.2220491 50.4076047 64.3967884 52.2475505 63.8319741 52.903978 61.6734818 52.5983538 52.0566118 50.85231 50.4470236"></polyline>
                    <path d="M60.0121749,52.6673892 C60.0263487,52.5551334 60.051153,52.4428777 60.1051909,52.3376932 C60.4914289,51.5846074 61.2860516,51.1638693 61.5775019,50.3780791 L58.1075608,47.4311449 L53.0891242,56.9331074 L54.5649786,58.4074584 C54.5649786,58.4074584 59.8801807,55.4605242 59.8801807,52.51359 L60.0121749,52.6673892" id="Fill-41" fill="#007BAB"></path>
                    <path d="M85.2753303,15.1686677 C85.2753303,15.1686677 73.9805259,25.1125819 80.734376,43.5640672 C84.3416265,53.4160554 89.0393792,59.4743299 89.0393792,59.4743299 L106.978186,41.4647964 L110.078721,54.8338366 L111.296788,47.6521208 L113.289989,30.8579546 L111.18694,28.7586838 L90.0359796,17.4889144 L85.1637111,16.2735471 L85.2753303,15.1686677" id="Fill-42" fill="#007BAB"></path>
                    <path d="M82.1739099,37.9291824 L91.5313232,31.2451043 C91.5313232,31.2451043 88.2996803,37.9937074 84.6109301,38.4268201 C83.6692534,38.537308 82.1739099,37.9291824 82.1739099,37.9291824" id="Fill-43" fill="#FFFFFF"></path>
                    <polyline id="Fill-44" fill="#34587A" points="99.7441962 27.1013648 93.3207745 43.6745551 96.8642426 40.359917 91.991974 56.5654035 106.978186 41.4647964 99.7441962 27.1013648"></polyline>
                    <path d="M30.1185925,15.1686677 C30.1185925,15.1686677 41.4133969,25.1125819 34.658661,43.5640672 C31.0522964,53.4160554 26.3536577,59.4743299 26.3536577,59.4743299 L8.41485075,41.4647964 L5.31431621,54.8338366 L4.09624906,47.6521208 L2.10304829,30.8579546 L4.20698244,28.7586838 L25.3570574,17.4889144 L30.2293259,16.2735471 L30.1185925,15.1686677" id="Fill-45" fill="#34587A"></path>
                    <path d="M33.2191271,37.9291824 L23.8617138,31.2451043 C23.8617138,31.2451043 27.0942426,37.9937074 30.7829928,38.4268201 C31.7237836,38.537308 33.2191271,37.9291824 33.2191271,37.9291824" id="Fill-46" fill="#FFFFFF"></path>
                    <polyline id="Fill-47" fill="#007BAB" points="15.6497266 27.1013648 22.0722625 43.6745551 18.5287944 40.359917 23.401063 56.5654035 8.41485075 41.4647964 15.6497266 27.1013648"></polyline>
                    <path d="M42.5384481,64.1386886 L42.3745627,64.5452842 L42.5393339,64.1395725 L42.5384481,64.1386886 M43.13818,62.6625698 L43.1036312,62.7474245 L43.13818,62.6625698 M43.1071747,59.5034987 L42.8024364,61.2112002 L43.1071747,59.5043826 C43.1071747,59.5043826 43.1071747,59.5043826 43.1071747,59.5034987" id="Fill-48" fill="#00A871"></path>
                    <path d="M51.7434922,51.2690538 L51.9144645,52.5507139 C51.9144645,52.5507139 51.9144645,58.1307966 51.6929978,58.7380383 C51.6761663,58.7848852 51.6345305,58.8060989 51.5734057,58.8060989 C50.8328209,58.8060989 47.1529293,55.700062 47.1529293,55.700062 L52.0251979,61.2244588 C52.0251979,61.2244588 51.7488074,62.550314 51.1951405,62.8817778 C51.1747656,62.8932686 51.1481895,62.8994559 51.1162983,62.8994559 C50.2720671,62.8994559 45.4919287,58.8485262 45.4919287,58.8485262 L49.9770734,63.9866572 C49.9770734,63.9866572 49.6882807,64.8908905 48.7200281,64.8908905 C48.5658872,64.8908905 48.3949149,64.867909 48.2053393,64.8148748 C47.1254674,64.5134637 44.3004375,61.0273483 43.1071747,59.5043826 L42.8024364,61.2112002 L43.13818,62.6625698 L43.1036312,62.7474245 C44.0692262,63.6613807 46.2670623,65.4230004 46.2670623,65.4230004 L45.0489952,66.2512179 L42.5393339,64.1395725 L42.3745627,64.5452842 L45.3360161,67.0237496 L46.8783105,65.7049656 L48.986674,66.2220491 L50.4076047,64.3967884 L52.2475505,63.8319741 L52.903978,61.6734818 L52.5983538,52.0566118 L51.7434922,51.2690538" id="Fill-49" fill="#0064A0"></path>
                </g>
            </g>
        </g>
    </g>
</svg>